<svg version="1.1" id="kkuweblogo" xmlns="http://www.w3.org/2000/svg" xmlns:xlink="http://www.w3.org/1999/xlink" x="0px" y="0px"
	 width="512px" height="512px" viewBox="0 0 512 512" enable-background="new 0 0 512 512" xml:space="preserve">
<g>
	<g>
		<polygon fill="none" points="256.275,256.108 256.275,256.108 256.275,256.108 		"/>
		<g>
			<polygon fill="#CCCCCC" points="194.284,148.482 317.909,148.356 255.986,255.609 132.362,255.733 			"/>
			<path fill="#FFFFFF" d="M317.042,148.857l-61.344,106.251l-122.47,0.124l61.345-106.25L317.042,148.857 M318.775,147.855
				l-124.78,0.127l-62.5,108.252l124.78-0.126L318.775,147.855L318.775,147.855z"/>
		</g>
		<g>
			<polygon fill="#CCCCCC" points="132.36,256.733 255.986,256.609 317.691,363.736 194.064,363.861 			"/>
			<path fill="#FFFFFF" d="M255.698,257.109l61.128,106.128l-122.473,0.123l-61.129-106.128L255.698,257.109 M256.275,256.108
				l-124.78,0.126l62.28,108.127l124.78-0.126L256.275,256.108L256.275,256.108z"/>
		</g>
		<g>
			<polygon fill="#CCCCCC" points="256.853,256.109 318.774,148.856 380.479,255.982 318.557,363.234 			"/>
			<path fill="#FFFFFF" d="M318.774,149.857l61.128,106.125l-61.346,106.251L257.43,256.109L318.774,149.857 M318.775,147.855
				l-62.5,108.253l62.28,108.127l62.501-108.253L318.775,147.855L318.775,147.855z"/>
		</g>
	</g>
	<g>
		<polygon fill="none" points="193.755,147.869 193.755,147.869 193.755,147.869 		"/>
		<g>
			<polygon fill="#CCCCCC" points="132.052,40.744 254.522,40.619 193.177,146.87 70.708,146.994 			"/>
			<path fill="#FFFFFF" d="M252.789,41.621L192.6,145.87l-120.159,0.123l60.189-104.25L252.789,41.621 M256.255,39.617
				l-124.78,0.127l-62.5,108.252l124.78-0.127L256.255,39.617L256.255,39.617z"/>
		</g>
		<g>
			<polygon fill="#CCCCCC" points="69.839,148.495 193.466,148.37 255.171,255.497 131.544,255.623 			"/>
			<path fill="#FFFFFF" d="M193.177,148.87l61.129,106.128l-122.474,0.125L70.704,148.994L193.177,148.87 M193.755,147.869
				l-124.78,0.127l62.28,108.127l124.78-0.127L193.755,147.869L193.755,147.869z"/>
		</g>
		<g>
			<polygon fill="#CCCCCC" points="194.332,147.87 256.254,40.618 317.959,147.744 256.036,254.995 			"/>
			<path fill="#FFFFFF" d="M256.254,41.619l61.128,106.125l-61.346,106.25L194.909,147.87L256.254,41.619 M256.255,39.617
				l-62.5,108.252l62.28,108.127l62.501-108.252L256.255,39.617L256.255,39.617z"/>
		</g>
	</g>
	<g>
		<polygon fill="none" points="380.755,255.889 380.755,255.889 380.755,255.889 		"/>
		<g>
			<polygon fill="#CCCCCC" points="318.764,148.263 442.389,148.138 380.466,255.389 256.841,255.515 			"/>
			<path fill="#FFFFFF" d="M441.521,148.639l-61.345,106.25l-122.469,0.125l61.345-106.25L441.521,148.639 M443.255,147.637
				l-124.78,0.127l-62.5,108.252l124.78-0.127L443.255,147.637L443.255,147.637z"/>
		</g>
		<g>
			<polygon fill="#CCCCCC" points="256.839,256.515 380.466,256.389 442.171,363.517 318.544,363.643 			"/>
			<path fill="#FFFFFF" d="M380.177,256.889l61.13,106.128l-122.474,0.124l-61.13-106.128L380.177,256.889 M380.755,255.889
				l-124.78,0.127l62.28,108.127l124.78-0.127L380.755,255.889L380.755,255.889z"/>
		</g>
		<g>
			<polygon fill="#CCCCCC" points="381.909,255.889 443.254,149.639 504.381,255.763 443.036,362.014 			"/>
			<path fill="#FFFFFF" d="M443.253,151.64l59.974,104.123l-60.189,104.249L383.063,255.89L443.253,151.64 M443.255,147.637
				l-62.5,108.252l62.28,108.127l62.5-108.252L443.255,147.637L443.255,147.637z"/>
		</g>
	</g>
	<g>
		<polygon fill="none" points="318.47,147.76 318.47,147.76 318.47,147.76 		"/>
		<g>
			<polygon fill="#CCCCCC" points="256.767,40.634 379.236,40.51 317.892,146.76 195.422,146.885 			"/>
			<path fill="#FFFFFF" d="M377.504,41.511l-60.189,104.25l-120.159,0.123l60.189-104.25L377.504,41.511 M380.97,39.508
				l-124.78,0.127l-62.5,108.252l124.78-0.127L380.97,39.508L380.97,39.508z"/>
		</g>
		<g>
			<polygon fill="#CCCCCC" points="194.554,148.386 318.181,148.26 379.886,255.388 256.259,255.513 			"/>
			<path fill="#FFFFFF" d="M317.892,148.76l61.13,106.128l-122.474,0.125l-61.129-106.128L317.892,148.76 M318.47,147.76
				l-124.78,0.127l62.28,108.127l124.78-0.127L318.47,147.76L318.47,147.76z"/>
		</g>
		<g>
			<polygon fill="#CCCCCC" points="319.624,147.76 380.969,41.51 442.097,147.634 380.751,253.885 			"/>
			<path fill="#FFFFFF" d="M380.968,43.511l59.975,104.123l-60.19,104.25l-59.974-104.123L380.968,43.511 M380.97,39.508
				l-62.5,108.252l62.28,108.127l62.501-108.252L380.97,39.508L380.97,39.508z"/>
		</g>
	</g>
	<g>
		<polygon fill="none" points="193.525,364.238 193.525,364.238 193.525,364.238 		"/>
		<g>
			<polygon fill="#CCCCCC" points="131.534,256.613 255.159,256.487 193.236,363.738 69.612,363.864 			"/>
			<path fill="#FFFFFF" d="M254.292,256.988l-61.345,106.251l-122.47,0.124l61.345-106.251L254.292,256.988 M256.025,255.986
				l-124.78,0.127l-62.5,108.252l124.78-0.127L256.025,255.986L256.025,255.986z"/>
		</g>
		<g>
			<polygon fill="#F7931E" points="70.474,365.363 192.948,365.239 254.077,471.367 131.603,471.491 			"/>
			<path fill="#FFFFFF" d="M192.37,366.239l59.978,104.13l-120.167,0.122l-59.978-104.13L192.37,366.239 M193.525,364.238
				l-124.78,0.127l62.28,108.127l124.78-0.127L193.525,364.238L193.525,364.238z"/>
		</g>
		<g>
			<polygon fill="#CCCCCC" points="194.103,364.238 256.025,256.987 317.729,364.113 255.806,471.364 			"/>
			<path fill="#FFFFFF" d="M256.024,257.988l61.128,106.124l-61.346,106.251L194.68,364.239L256.024,257.988 M256.025,255.986
				l-62.5,108.252l62.28,108.127l62.501-108.252L256.025,255.986L256.025,255.986z"/>
		</g>
	</g>
	<g>
		<polygon fill="none" points="131.245,256.129 131.245,256.129 131.245,256.129 		"/>
		<g>
			<polygon fill="#00A99D" points="69.542,149.002 192.012,148.878 130.667,255.129 8.198,255.253 			"/>
			<path fill="#FFFFFF" d="M190.279,149.879L130.09,254.13L9.931,254.251l60.189-104.25L190.279,149.879 M193.745,147.876
				l-124.78,0.127l-62.5,108.252l124.78-0.126L193.745,147.876L193.745,147.876z"/>
		</g>
		<g>
			<polygon fill="#CCCCCC" points="8.194,257.253 130.667,257.13 191.796,363.258 69.323,363.381 			"/>
			<path fill="#FFFFFF" d="M130.09,258.13l59.978,104.13L69.9,362.381L9.923,258.251L130.09,258.13 M131.245,256.129l-124.78,0.126
				l62.28,108.127l124.78-0.126L131.245,256.129L131.245,256.129z"/>
		</g>
		<g>
			<polygon fill="#CCCCCC" points="131.822,256.129 193.745,148.877 255.449,256.002 193.526,363.255 			"/>
			<path fill="#FFFFFF" d="M193.744,149.878l61.128,106.125l-61.346,106.251l-61.127-106.125L193.744,149.878 M193.745,147.876
				l-62.5,108.253l62.28,108.127l62.501-108.253L193.745,147.876L193.745,147.876z"/>
		</g>
	</g>
	<g>
		<polygon fill="none" points="318.275,364.108 318.275,364.108 318.275,364.108 		"/>
		<g>
			<polygon fill="#CCCCCC" points="256.284,256.482 379.909,256.356 317.986,363.608 194.362,363.733 			"/>
			<path fill="#FFFFFF" d="M379.042,256.857l-61.345,106.252l-122.469,0.123l61.345-106.25L379.042,256.857 M380.775,255.855
				l-124.78,0.127l-62.5,108.252l124.78-0.126L380.775,255.855L380.775,255.855z"/>
		</g>
		<g>
			<polygon fill="#CCCCCC" points="195.224,365.232 317.697,365.109 378.827,471.237 256.353,471.36 			"/>
			<path fill="#FFFFFF" d="M317.12,366.109l59.978,104.13l-120.167,0.121l-59.978-104.13L317.12,366.109 M318.275,364.108
				l-124.78,0.126l62.28,108.127l124.78-0.126L318.275,364.108L318.275,364.108z"/>
		</g>
		<g>
			<polygon fill="#CCCCCC" points="319.43,364.109 380.774,257.857 441.902,363.981 380.557,470.233 			"/>
			<path fill="#FFFFFF" d="M380.773,259.859l59.975,104.122l-60.19,104.25l-59.974-104.122L380.773,259.859 M380.775,255.855
				l-62.5,108.253l62.28,108.127l62.501-108.253L380.775,255.855L380.775,255.855z"/>
		</g>
	</g>
	<g>
		<polygon fill="none" points="256.029,255.988 256.029,255.988 256.029,255.988 		"/>
		<g>
			<polygon fill="#F15A24" points="194.327,148.862 316.796,148.737 255.452,254.989 132.982,255.112 			"/>
			<path fill="#FFFFFF" d="M315.063,149.739l-60.189,104.25l-120.159,0.122l60.189-104.25L315.063,149.739 M318.529,147.735
				l-124.78,0.127l-62.5,108.252l124.78-0.126L318.529,147.735L318.529,147.735z"/>
		</g>
		<g>
			<polygon fill="#F15A24" points="132.978,257.112 255.452,256.989 316.581,363.117 194.107,363.24 			"/>
			<path fill="#FFFFFF" d="M254.874,257.989l59.978,104.13l-120.167,0.121l-59.978-104.13L254.874,257.989 M256.029,255.988
				l-124.78,0.126l62.28,108.127l124.78-0.126L256.029,255.988L256.029,255.988z"/>
		</g>
		<g>
			<polygon fill="#F15A24" points="257.184,255.989 318.528,149.737 379.656,255.862 318.311,362.113 			"/>
			<path fill="#FFFFFF" d="M318.527,151.739l59.975,104.123l-60.19,104.25l-59.974-104.122L318.527,151.739 M318.529,147.735
				l-62.5,108.253l62.28,108.127l62.501-108.253L318.529,147.735L318.529,147.735z"/>
		</g>
	</g>
	<g>
		<g enable-background="new    ">
			<defs>
				<polygon id="SVGID_1_" enable-background="new    " points="318.636,364.68 194.174,365.032 131.636,256.714 256.098,256.361 
									"/>
			</defs>
			<clipPath id="SVGID_2_">
				<use xlink:href="#SVGID_1_"  overflow="visible"/>
			</clipPath>
			<g clip-path="url(#SVGID_2_)">
				<path fill="#FFFFFF" d="M304.563,345.052l13.592,19.629l0.455-0.046l-11.169-16.129L304.563,345.052 M297.772,335.245
					l4.349,6.282l2.88,3.454l-5.68-8.202L297.772,335.245 M290.979,325.434l5.659,8.173l1.548,1.534l-6.102-8.812L290.979,325.434
					 M284.19,315.63l6.071,8.77l1.104,0.894l-6.293-9.088L284.19,315.63 M277.401,305.827l6.271,9.057l0.883,0.574l-6.403-9.248
					L277.401,305.827 M270.617,296.03l6.37,9.199l0.751,0.383l-6.458-9.327L270.617,296.03 M263.83,286.229l6.43,9.284l0.662,0.255
					l-6.492-9.376L263.83,286.229 M257.044,276.429l6.462,9.332l0.6,0.164l-6.51-9.402L257.044,276.429 M250.254,266.624l6.482,9.36
					l0.552,0.095l-6.52-9.415L250.254,266.624 M243.333,256.629l6.626,9.568l0.514,0.04l-6.683-9.651L243.333,256.629"/>
				<path fill="#FFFFFF" d="M289.856,327.403l14.707,17.648l2.878,3.454l4.492,5.391l0.419-0.092l-7.352-8.823l-2.88-3.454
					l-9.417-11.303L289.856,327.403 M282.502,318.576l4.897,5.879l2.849,2.822l-6.221-7.466L282.502,318.576 M275.153,309.76
					l6.184,7.421l1.526,1.234l-6.624-7.95L275.153,309.76 M267.806,300.94l6.601,7.922l1.085,0.705l-6.82-8.186L267.806,300.94
					 M260.462,292.129l6.783,8.141l0.865,0.44l-6.915-8.3L260.462,292.129 M253.115,283.312l6.882,8.258l0.733,0.282l-6.969-8.364
					L253.115,283.312 M245.769,274.495l6.937,8.325l0.646,0.176l-7.001-8.4L245.769,274.495 M238.418,265.675l6.97,8.364
					l0.583,0.101l-7.018-8.422L238.418,265.675 M230.931,256.691l7.127,8.552l0.535,0.042l-7.238-8.687L230.931,256.691"/>
				<path fill="#FFFFFF" d="M274.027,311.723l15.829,15.681l2.848,2.821l5.068,5.021l1.549,1.534l6.397,6.338l0.368-0.149
					l-7.901-7.827l-1.548-1.534l-6.39-6.329l-2.849-2.822l-10.541-10.442L274.027,311.723 M266.122,303.892l5.401,5.35l2.83,2.291
					l-6.722-6.66L266.122,303.892 M258.214,296.057l6.701,6.639l1.509,0.98l-7.141-7.074L258.214,296.057 M250.312,288.229
					l7.099,7.032l1.069,0.544l-7.319-7.25L250.312,288.229 M242.405,280.397l7.281,7.212l0.848,0.326l-7.413-7.343L242.405,280.397
					 M234.498,272.563l7.378,7.31l0.717,0.195l-7.467-7.396L234.498,272.563 M226.587,264.727l7.434,7.364l0.628,0.107l-7.496-7.426
					L226.587,264.727 M218.538,256.753l7.605,7.534l0.565,0.046l-7.803-7.729L218.538,256.753"/>
				<path fill="#FFFFFF" d="M257.094,298.026l16.934,13.696l2.831,2.29l5.644,4.563l1.525,1.235l6.951,5.622l1.105,0.895
					l7.429,6.009l0.303-0.21l-8.449-6.834l-1.104-0.894l-7.398-5.984l-1.526-1.234l-6.983-5.648l-2.83-2.291l-11.568-9.357
					L257.094,298.026 M248.624,291.175l5.882,4.758l2.86,1.858l-7.224-5.843L248.624,291.175 M240.163,284.331l7.17,5.8l1.52,0.773
					l-7.617-6.162L240.163,284.331 M231.696,277.481l7.573,6.126l1.07,0.412l-7.796-6.307L231.696,277.481 M223.228,270.632
					l7.76,6.277l0.849,0.23l-7.895-6.386L223.228,270.632 M214.755,263.778l7.858,6.357l0.715,0.121l-7.949-6.429L214.755,263.778
					 M206.15,256.818l8.05,6.511l0.624,0.051l-8.37-6.771L206.15,256.818"/>
				<path fill="#FFFFFF" d="M239.032,286.29l18.062,11.736l2.861,1.857l6.167,4.008l1.51,0.98l7.521,4.888l1.086,0.705l7.951,5.165
					l0.883,0.575l8.243,5.355l0.216-0.271l-8.977-5.832l-0.883-0.574l-8.182-5.316l-1.085-0.705l-7.982-5.187l-1.509-0.98
					l-7.549-4.904l-2.86-1.858l-12.54-8.148L239.032,286.29 M230.016,280.433l6.265,4.07l2.934,1.493l-7.644-4.967L230.016,280.433
					 M220.988,274.567l7.598,4.937l1.554,0.597l-8.058-5.235L220.988,274.567 M211.958,268.7l8.023,5.213l1.094,0.298l-8.253-5.363
					L211.958,268.7 M202.924,262.829l8.216,5.34l0.863,0.147l-8.354-5.429L202.924,262.829 M193.772,256.884l8.44,5.485l0.727,0.059
					l-8.948-5.814L193.772,256.884"/>
				<path fill="#FFFFFF" d="M219.878,276.538l19.154,9.752l2.934,1.494l6.658,3.391l1.519,0.773l8.071,4.108l1.069,0.545
					l8.522,4.339l0.865,0.441l8.73,4.445l0.751,0.383l8.968,4.566l0.125-0.324l-9.507-4.84l-0.751-0.383l-8.877-4.52l-0.865-0.44
					l-8.766-4.464l-1.069-0.544l-8.558-4.357l-1.52-0.773l-8.119-4.135l-2.934-1.493l-13.308-6.776L219.878,276.538
					 M210.286,271.653l6.554,3.338l3.095,1.188l-8.017-4.082L210.286,271.653 M200.691,266.769l7.99,4.068l1.633,0.444l-8.477-4.315
					L200.691,266.769 M191.094,261.882l8.439,4.297l1.146,0.196l-8.684-4.421L191.094,261.882 M181.4,256.945l8.751,4.457l0.9,0.072
					l-9.528-4.853L181.4,256.945"/>
				<path fill="#FFFFFF" d="M199.575,268.738l20.303,7.8l3.095,1.188l7.043,2.706l1.555,0.597l8.593,3.302l1.072,0.411l9.076,3.487
					l0.849,0.326l9.302,3.573l0.733,0.281l9.422,3.62l0.663,0.255l9.649,3.707l0.027-0.37l-10.035-3.854l-0.662-0.255l-9.529-3.66
					l-0.733-0.282l-9.463-3.635l-0.848-0.326l-9.347-3.59l-1.07-0.412l-9.13-3.507l-1.554-0.597l-8.651-3.324l-3.095-1.188
					l-13.872-5.329L199.575,268.738 M189.419,264.836l6.764,2.598l3.392,0.925l-8.37-3.216L189.419,264.836 M179.259,260.933
					l8.32,3.197l1.785,0.306l-8.856-3.403L179.259,260.933 M169.03,257.004l8.896,3.418l1.249,0.1l-10.118-3.887L169.03,257.004"/>
				<path fill="#FFFFFF" d="M178.136,262.902l21.439,5.836l3.393,0.924l7.318,1.991l1.632,0.444l9.07,2.47l1.094,0.298l9.614,2.616
					l0.848,0.231l9.861,2.685l0.716,0.195l9.994,2.72l0.646,0.176l10.068,2.74l0.6,0.163l10.303,2.805l-0.058-0.396l-10.569-2.876
					l-0.6-0.164l-10.154-2.765l-0.646-0.176l-10.112-2.752l-0.717-0.195l-10.04-2.733l-0.849-0.23l-9.912-2.698l-1.094-0.298
					l-9.667-2.632l-1.633-0.444l-9.107-2.479l-3.392-0.925l-14.276-3.885L178.136,262.902 M167.414,259.984l6.839,1.86l3.77,0.646
					l-8.629-2.35L167.414,259.984 M156.651,257.054l8.653,2.356l1.978,0.157l-10.688-2.909L156.651,257.054"/>
				<path fill="#FFFFFF" d="M155.575,259.034l22.561,3.868l3.771,0.646l7.513,1.287l1.785,0.307l9.487,1.626l1.146,0.197
					l10.12,1.734l0.864,0.147l10.405,1.784l0.714,0.122l10.557,1.81l0.628,0.108l10.643,1.823l0.582,0.101l10.693,1.833l0.552,0.094
					l10.932,1.875l-0.134-0.415l-11.105-1.903l-0.552-0.095l-10.766-1.845l-0.583-0.101l-10.739-1.841l-0.628-0.107l-10.692-1.834
					l-0.715-0.121l-10.61-1.819l-0.863-0.147l-10.461-1.794l-1.146-0.196l-10.169-1.743l-1.785-0.306l-9.557-1.639l-3.77-0.646
					l-14.389-2.467L155.575,259.034 M144.27,257.097l6.86,1.176l4.29,0.345l-11.285-1.935L144.27,257.097"/>
				<polyline fill="#FFFFFF" points="131.879,257.136 155.575,259.034 159.864,259.378 167.414,259.984 169.394,260.142 
					179.259,260.933 180.508,261.032 191.094,261.882 191.995,261.954 202.924,262.829 203.648,262.888 214.755,263.778 
					215.379,263.828 226.587,264.727 227.152,264.772 238.418,265.675 238.953,265.718 250.254,266.624 250.769,266.664 
					262.319,267.59 262.126,267.172 250.473,266.237 249.959,266.197 238.593,265.285 238.058,265.243 226.709,264.333 
					226.144,264.287 214.824,263.38 214.2,263.329 202.939,262.428 202.213,262.369 191.052,261.475 190.151,261.402 
					179.176,260.521 177.927,260.422 167.282,259.567 165.305,259.41 155.42,258.617 151.13,258.272 131.684,256.714 
					131.879,257.136 				"/>
			</g>
		</g>
	</g>
	<g>
		<g enable-background="new    ">
			<defs>
				<polygon id="SVGID_3_" enable-background="new    " points="318.382,147.896 381.17,255.361 318.885,363.826 256.098,256.361 
									"/>
			</defs>
			<clipPath id="SVGID_4_">
				<use xlink:href="#SVGID_3_"  overflow="visible"/>
			</clipPath>
			<g clip-path="url(#SVGID_4_)">
				<path fill="#FFFFFF" d="M308.471,169.922l10.153-21.609l-0.269-0.371l-8.342,17.757L308.471,169.922 M303.398,180.718
					l3.25-6.915l1.542-4.225l-4.242,9.029L303.398,180.718 M298.324,191.52l4.228-8.998l0.55-2.109l-4.559,9.701L298.324,191.52
					 M293.253,202.312l4.536-9.653l0.219-1.404l-4.7,10.005L293.253,202.312 M288.184,213.104l4.685-9.97l0.054-1.052l-4.785,10.181
					L288.184,213.104 M283.117,223.89l4.758-10.128l-0.047-0.842l-4.824,10.269L283.117,223.89 M278.047,234.68l4.801-10.221
					l-0.111-0.701l-4.85,10.322L278.047,234.68 M272.979,245.469l4.826-10.273l-0.158-0.601l-4.865,10.351L272.979,245.469
					 M267.907,256.264l4.841-10.306l-0.195-0.524l-4.869,10.364L267.907,256.264 M262.736,267.267l4.949-10.534l-0.223-0.464
					l-4.992,10.624L262.736,267.267"/>
				<path fill="#FFFFFF" d="M300.591,191.5l7.88-21.578l1.543-4.224l2.407-6.592l-0.29-0.315l-3.94,10.787l-1.542,4.225
					l-5.047,13.818L300.591,191.5 M296.648,202.293l2.626-7.188l1.011-3.881l-3.334,9.129L296.648,202.293 M292.713,213.074
					l3.314-9.074l0.301-1.939l-3.551,9.721L292.713,213.074 M288.774,223.855l3.538-9.685l0.064-1.292l-3.654,10.008
					L288.774,223.855 M284.84,234.631l3.636-9.953l-0.054-0.97l-3.706,10.147L284.84,234.631 M280.904,245.41l3.687-10.097
					l-0.124-0.776l-3.736,10.227L280.904,245.41 M276.966,256.191l3.718-10.18l-0.172-0.646l-3.751,10.271L276.966,256.191
					 M273.027,266.977l3.735-10.227l-0.206-0.555l-3.76,10.297L273.027,266.977 M269.018,277.962l3.818-10.458l-0.232-0.482
					l-3.879,10.62L269.018,277.962"/>
				<path fill="#FFFFFF" d="M294.976,213.062l5.615-21.562l1.011-3.879l1.797-6.903l0.55-2.11l2.27-8.715l-0.313-0.242
					l-2.803,10.762l-0.55,2.109l-2.267,8.703l-1.011,3.881l-3.739,14.359L294.976,213.062 M292.172,223.83l1.915-7.356l0.561-3.598
					l-2.386,9.157L292.172,223.83 M289.365,234.604l2.378-9.129l0.091-1.797l-2.533,9.727L289.365,234.604 M286.564,245.367
					l2.518-9.67l-0.066-1.197l-2.596,9.97L286.564,245.367 M283.759,256.137l2.582-9.918l-0.144-0.896l-2.629,10.098
					L283.759,256.137 M280.953,266.908l2.619-10.051l-0.191-0.717l-2.648,10.17L280.953,266.908 M278.147,277.685l2.638-10.126
					l-0.223-0.598l-2.66,10.211L278.147,277.685 M275.292,288.648l2.698-10.359l-0.244-0.513l-2.768,10.629L275.292,288.648"/>
				<path fill="#FFFFFF" d="M291.632,234.584l3.344-21.521l0.56-3.598l1.113-7.172l0.303-1.939l1.373-8.834l0.219-1.406l1.467-9.44
					l-0.333-0.157l-1.669,10.738l-0.219,1.404l-1.461,9.402L296.027,204l-1.38,8.876l-0.561,3.598l-2.285,14.702L291.632,234.584
					 M289.959,245.348l1.161-7.475l0.171-3.406l-1.426,9.18L289.959,245.348 M288.287,256.102l1.416-9.113l-0.094-1.702
					l-1.506,9.682L288.287,256.102 M286.613,266.863l1.496-9.626l-0.181-1.133l-1.541,9.909L286.613,266.863 M284.941,277.625
					l1.533-9.861l-0.227-0.851l-1.56,10.033L284.941,277.625 M283.268,288.394l1.553-9.987l-0.254-0.68l-1.57,10.102
					L283.268,288.394 M281.567,299.329l1.59-10.23l-0.27-0.565l-1.654,10.639L281.567,299.329"/>
				<path fill="#FFFFFF" d="M290.549,256.096l1.083-21.512l0.17-3.408l0.37-7.346l0.09-1.797l0.451-8.959l0.064-1.293l0.476-9.47
					l0.055-1.053l0.493-9.817l-0.342-0.051l-0.537,10.691l-0.054,1.052l-0.491,9.745l-0.064,1.292l-0.479,9.507l-0.091,1.797
					l-0.452,8.992l-0.171,3.406l-0.752,14.936L290.549,256.096 M290.01,266.834l0.375-7.461l-0.182-3.287l-0.458,9.104
					L290.01,266.834 M289.469,277.586l0.455-9.049l-0.264-1.643l-0.482,9.596L289.469,277.586 M288.928,288.342l0.48-9.557
					l-0.291-1.096l-0.496,9.83L288.928,288.342 M288.386,299.102l0.493-9.785l-0.306-0.821l-0.501,9.951L288.386,299.102
					 M287.838,310.002l0.507-10.055l-0.313-0.656l-0.537,10.657L287.838,310.002"/>
				<path fill="#FFFFFF" d="M291.73,277.557l-1.182-21.461l-0.181-3.287l-0.409-7.461l-0.094-1.701l-0.5-9.043l-0.064-1.199
					l-0.526-9.549l-0.052-0.969l-0.539-9.783l-0.047-0.841l-0.553-10.048l-0.342,0.054l0.586,10.651l0.047,0.842l0.547,9.946
					l0.054,0.97l0.54,9.822l0.066,1.197l0.527,9.589l0.094,1.702l0.5,9.098l0.182,3.287l0.82,14.911L291.73,277.557
					 M292.321,288.305l-0.403-7.344l-0.525-3.273l0.494,8.983L292.321,288.305 M292.914,299.055l-0.493-8.952l-0.436-1.636
					l0.522,9.498L292.914,299.055 M293.506,309.809l-0.521-9.455l-0.404-1.09l0.535,9.729L293.506,309.809 M294.102,320.671
					l-0.538-9.806l-0.39-0.815l0.587,10.677L294.102,320.671"/>
				<path fill="#FFFFFF" d="M295.178,299.031l-3.447-21.475l-0.525-3.272l-1.195-7.45l-0.265-1.644l-1.458-9.089l-0.184-1.134
					l-1.539-9.601l-0.145-0.897l-1.58-9.839l-0.124-0.775l-1.599-9.966l-0.113-0.701l-1.639-10.207l-0.333,0.163l1.704,10.613
					l0.111,0.701l1.619,10.078l0.124,0.776l1.606,10.009l0.144,0.896l1.588,9.886l0.181,1.133l1.551,9.657l0.264,1.643l1.469,9.15
					l0.525,3.273l2.355,14.673L295.178,299.031 M296.901,309.774l-1.149-7.153l-0.902-3.398l1.42,8.854L296.901,309.774
					 M298.626,320.521l-1.412-8.801l-0.632-1.697l1.503,9.367L298.626,320.521 M300.363,331.34l-1.511-9.41l-0.54-1.131
					l1.717,10.703L300.363,331.34"/>
				<path fill="#FFFFFF" d="M300.894,320.504l-5.716-21.473l-0.904-3.397l-1.952-7.329l-0.435-1.634l-2.418-9.085l-0.291-1.096
					l-2.564-9.627l-0.226-0.85l-2.629-9.877l-0.19-0.717l-2.664-10.01l-0.174-0.646l-2.684-10.084l-0.16-0.6l-2.746-10.318
					l-0.313,0.248l2.819,10.585l0.158,0.601l2.707,10.17l0.172,0.646l2.697,10.129l0.191,0.717l2.676,10.056l0.227,0.851
					l2.643,9.926l0.291,1.096l2.577,9.682l0.436,1.636l2.429,9.12l0.902,3.398l3.808,14.297L300.894,320.504 M303.752,331.241
					l-1.824-6.849l-1.334-3.584l2.301,8.642L303.752,331.241 M306.62,342.021l-2.306-8.667l-0.857-1.789l2.851,10.705
					L306.62,342.021"/>
				<path fill="#FFFFFF" d="M308.873,341.957l-7.979-21.453l-1.334-3.586l-2.658-7.144l-0.632-1.698l-3.355-9.021l-0.406-1.09
					l-3.58-9.623l-0.307-0.822l-3.68-9.895l-0.253-0.679l-3.735-10.038l-0.221-0.598l-3.767-10.119l-0.205-0.555l-3.782-10.168
					l-0.197-0.523l-3.865-10.396l-0.292,0.324l3.929,10.561l0.195,0.524l3.809,10.237l0.206,0.555l3.8,10.211l0.223,0.598
					l3.781,10.168l0.254,0.68l3.753,10.089l0.306,0.821l3.701,9.947l0.404,1.09l3.598,9.67l0.632,1.697l3.38,9.088l1.334,3.584
					l5.09,13.682L308.873,341.957 M312.874,352.707l-2.428-6.523l-1.855-3.883l3.992,10.731L312.874,352.707"/>
				<polyline fill="#FFFFFF" points="319.128,363.404 308.873,341.957 307.018,338.074 303.752,331.241 302.895,329.45 
					298.626,320.521 298.085,319.391 293.506,309.809 293.115,308.993 288.386,299.102 288.072,298.446 283.268,288.394 
					282.996,287.828 278.147,277.685 277.902,277.172 273.027,266.977 272.797,266.492 267.907,256.264 267.684,255.798 
					262.686,245.344 262.421,245.721 267.463,256.269 267.686,256.732 272.604,267.021 272.836,267.504 277.746,277.776 
					277.99,278.289 282.888,288.533 283.157,289.099 288.031,299.291 288.345,299.947 293.174,310.05 293.563,310.865 
					298.312,320.799 298.853,321.93 303.457,331.564 304.314,333.354 308.591,342.301 310.446,346.184 318.861,363.785 
					319.128,363.404 				"/>
			</g>
		</g>
	</g>
	<g>
		<g enable-background="new    ">
			<defs>
				<polygon id="SVGID_5_" enable-background="new    " points="193.562,148.42 131.58,256.352 6.504,256.285 68.486,148.355 				
					"/>
			</defs>
			<clipPath id="SVGID_6_">
				<use xlink:href="#SVGID_5_"  overflow="visible"/>
			</clipPath>
			<g clip-path="url(#SVGID_6_)">
				<path fill="#FFFFFF" d="M169.525,150.781l23.796-1.945l0.188-0.418l-19.553,1.6L169.525,150.781 M157.637,151.752l7.615-0.621
					l4.432-0.764l-9.942,0.811L157.637,151.752 M145.742,152.725l9.909-0.811l2.103-0.572l-10.684,0.873L145.742,152.725
					 M133.857,153.695l10.631-0.869l1.327-0.508l-11.018,0.9L133.857,153.695 M121.974,154.666l10.979-0.896l0.939-0.477
					l-11.213,0.914L121.974,154.666 M110.097,155.637l11.152-0.91l0.708-0.461l-11.309,0.926L110.097,155.637 M98.214,156.607
					l11.255-0.92l0.554-0.445l-11.367,0.928L98.214,156.607 M86.334,157.578l11.312-0.924l0.442-0.436l-11.399,0.928L86.334,157.578
					 M74.447,158.551l11.348-0.928l0.357-0.432l-11.413,0.934L74.447,158.551 M62.33,159.539l11.6-0.947l0.292-0.424l-11.7,0.955
					L62.33,159.539"/>
				<path fill="#FFFFFF" d="M146.887,154.68l22.639-3.898l4.432-0.764l6.915-1.191l0.13-0.408l-11.318,1.949l-4.432,0.764
					l-14.497,2.496L146.887,154.68 M135.563,156.631l7.541-1.299l3.869-1.053l-9.578,1.648L135.563,156.631 M124.253,158.58
					l9.521-1.639l1.832-0.705l-10.199,1.756L124.253,158.58 M112.941,160.527l10.161-1.748l1.152-0.588L113.756,160L112.941,160.527
					 M101.637,162.477l10.442-1.799l0.814-0.529l-10.646,1.834L101.637,162.477 M90.328,164.426l10.593-1.826l0.611-0.494
					l-10.729,1.848L90.328,164.426 M79.017,166.373l10.68-1.84l0.476-0.471l-10.776,1.855L79.017,166.373 M67.701,168.322
					l10.729-1.848l0.379-0.455l-10.803,1.861L67.701,168.322 M56.177,170.309l10.972-1.891l0.303-0.441l-11.142,1.918
					L56.177,170.309"/>
				<path fill="#FFFFFF" d="M125.389,160.537l21.498-5.857l3.868-1.053l6.882-1.875l2.104-0.574l8.688-2.367l0.055-0.393
					l-10.73,2.924l-2.103,0.572l-8.678,2.365l-3.869,1.053l-14.316,3.9L125.389,160.537 M114.653,163.463l7.334-2l3.4-1.303
					l-9.131,2.486L114.653,163.463 M103.912,166.389l9.102-2.48l1.604-0.814l-9.697,2.641L103.912,166.389 M93.182,169.312
					l9.641-2.627l1.006-0.652l-9.94,2.709L93.182,169.312 M82.443,172.238l9.888-2.695l0.707-0.57l-10.067,2.744L82.443,172.238
					 M71.704,175.164l10.021-2.729l0.526-0.523l-10.14,2.762L71.704,175.164 M60.96,178.09l10.096-2.75l0.408-0.49l-10.182,2.773
					L60.96,178.09 M50.028,181.068l10.329-2.812l0.323-0.467l-10.597,2.887L50.028,181.068"/>
				<path fill="#FFFFFF" d="M105.056,168.344l20.333-7.807l3.399-1.305l6.775-2.602l1.832-0.703l8.347-3.203l1.328-0.51l8.92-3.426
					l-0.029-0.367l-10.146,3.896l-1.327,0.508l-8.883,3.41l-1.832,0.705l-8.386,3.219l-3.4,1.303l-13.89,5.334L105.056,168.344
					 M94.887,172.248l7.062-2.711l3.04-1.547l-8.672,3.33L94.887,172.248 M84.727,176.148l8.61-3.307l1.43-0.928l-9.147,3.51
					L84.727,176.148 M74.559,180.051l9.095-3.492l0.893-0.719l-9.362,3.592L74.559,180.051 M64.392,183.955l9.317-3.576l0.625-0.621
					l-9.479,3.641L64.392,183.955 M54.218,187.859l9.436-3.621l0.464-0.559l-9.544,3.664L54.218,187.859 M43.886,191.826
					l9.665-3.711l0.357-0.516l-10.052,3.857L43.886,191.826"/>
				<path fill="#FFFFFF" d="M85.857,178.107l19.198-9.764l3.042-1.547l6.556-3.334l1.604-0.816l7.996-4.066l1.153-0.588l8.451-4.297
					l0.94-0.477l8.762-4.457l-0.126-0.322l-9.541,4.854l-0.939,0.477l-8.698,4.422l-1.152,0.588l-8.485,4.314l-1.604,0.814
					l-8.025,4.082l-3.04,1.547l-13.329,6.777L85.857,178.107 M76.274,182.982l6.658-3.387l2.761-1.793l-8.125,4.133L76.274,182.982
					 M66.678,187.863l8.076-4.109l1.294-1.045l-8.564,4.355L66.678,187.863 M57.079,192.744l8.528-4.338l0.806-0.797l-8.773,4.459
					L57.079,192.744 M47.476,197.627l8.733-4.439l0.561-0.674l-8.882,4.516L47.476,197.627 M37.747,202.576l8.975-4.564l0.413-0.598
					l-9.512,4.836L37.747,202.576"/>
				<path fill="#FFFFFF" d="M67.829,189.811l18.028-11.703l2.762-1.793l6.268-4.066l1.43-0.928l7.596-4.932l1.008-0.654l8.021-5.207
					l0.814-0.527l8.218-5.334l0.706-0.459l8.441-5.479l-0.217-0.27l-8.947,5.807l-0.708,0.461l-8.355,5.422l-0.814,0.529
					l-8.251,5.355l-1.006,0.652l-8.056,5.229l-1.43,0.928l-7.644,4.961l-2.761,1.793l-12.526,8.131L67.829,189.811 M58.8,195.67
					l6.169-4.004l2.578-2.084L60,194.48L58.8,195.67 M49.77,201.533l7.52-4.883l1.203-1.191l-7.979,5.178L49.77,201.533
					 M40.735,207.396l7.942-5.156l0.744-0.895l-8.174,5.305L40.735,207.396 M31.609,213.316l8.238-5.346l0.513-0.742l-8.969,5.82
					L31.609,213.316"/>
				<path fill="#FFFFFF" d="M50.915,203.484l16.914-13.674l2.577-2.084l5.868-4.744l1.294-1.047l7.158-5.787l0.893-0.725
					l7.562-6.111l0.706-0.57l7.749-6.266l0.611-0.494l7.849-6.346l0.552-0.445l8.039-6.5l-0.307-0.209l-8.358,6.76l-0.554,0.445
					l-7.937,6.418l-0.611,0.494l-7.883,6.373l-0.707,0.57l-7.785,6.297l-0.893,0.719l-7.605,6.15l-1.294,1.045l-7.207,5.828
					l-2.578,2.084l-11.556,9.344L50.915,203.484 M42.454,210.324l5.634-4.557l2.498-2.473l-6.973,5.637L42.454,210.324
					 M33.989,217.168l6.932-5.605l1.158-1.391l-7.378,5.963L33.989,217.168 M25.47,224.057l7.411-5.992l0.712-1.031l-8.43,6.814
					L25.47,224.057"/>
				<path fill="#FFFFFF" d="M35.133,219.125l15.782-15.641l2.498-2.475l5.387-5.34l1.2-1.189l6.678-6.617l0.806-0.799l7.075-7.014
					l0.625-0.619l7.26-7.193l0.527-0.521l7.357-7.291l0.475-0.473l7.411-7.346l0.441-0.438l7.584-7.516l-0.371-0.148l-7.779,7.713
					l-0.442,0.436l-7.475,7.408l-0.476,0.471l-7.444,7.379l-0.526,0.523l-7.392,7.322l-0.625,0.621l-7.296,7.23l-0.806,0.797
					l-7.115,7.053l-1.203,1.191l-6.703,6.645l-2.498,2.473L37.58,216.184L35.133,219.125 M27.241,226.947l5.033-4.99l2.445-2.939
					l-6.352,6.295L27.241,226.947 M19.317,234.799l6.371-6.312l1.125-1.635l-7.867,7.799L19.317,234.799"/>
				<path fill="#FFFFFF" d="M20.493,236.721l14.64-17.596l2.447-2.941l4.874-5.859l1.159-1.393l6.156-7.398l0.743-0.896l6.566-7.893
					l0.561-0.676l6.752-8.113l0.463-0.557l6.85-8.234l0.408-0.49l6.904-8.301l0.379-0.455l6.938-8.34l0.355-0.432l7.096-8.525
					l-0.427-0.092l-7.206,8.662l-0.357,0.432l-6.985,8.396l-0.379,0.455l-6.967,8.375l-0.408,0.49l-6.938,8.34l-0.464,0.559
					l-6.884,8.275l-0.561,0.674l-6.787,8.158l-0.744,0.895l-6.599,7.932l-1.158,1.391l-6.201,7.455l-2.445,2.939l-9.336,11.223
					L20.493,236.721 M13.159,245.539l4.45-5.352l2.445-3.541l-7.323,8.803L13.159,245.539"/>
				<polyline fill="#FFFFFF" points="6.991,256.287 20.493,236.721 22.938,233.18 27.241,226.947 28.368,225.312 33.989,217.168 
					34.701,216.135 40.735,207.396 41.248,206.65 47.476,197.627 47.888,197.029 54.218,187.859 54.573,187.344 60.96,178.09 
					61.282,177.623 67.701,168.322 68.007,167.881 74.447,158.551 74.739,158.125 81.321,148.588 80.863,148.545 74.222,158.168 
					73.93,158.592 67.451,167.977 67.148,168.418 60.681,177.789 60.357,178.256 53.908,187.6 53.551,188.115 47.135,197.414 
					46.722,198.012 40.36,207.229 39.848,207.971 33.593,217.033 32.881,218.064 26.813,226.852 25.688,228.486 20.055,236.646 
					17.609,240.188 6.527,256.244 6.991,256.287 				"/>
			</g>
		</g>
	</g>
	<g>
		<g enable-background="new    ">
			<defs>
				<polygon id="SVGID_7_" enable-background="new    " points="131.022,255.9 193.346,148.166 318.42,148.627 256.097,256.361 				
					"/>
			</defs>
			<clipPath id="SVGID_8_">
				<use xlink:href="#SVGID_7_"  overflow="visible"/>
			</clipPath>
			<g clip-path="url(#SVGID_8_)">
				<path fill="#FFFFFF" d="M155.064,253.617l-23.801,1.868l-0.189,0.417l19.559-1.537L155.064,253.617 M166.957,252.683
					l-7.617,0.597l-4.434,0.751l9.945-0.781L166.957,252.683 M178.854,251.748l-9.911,0.778l-2.104,0.565l10.686-0.838
					L178.854,251.748 M190.742,250.815l-10.633,0.834l-1.328,0.505l11.02-0.865L190.742,250.815 M202.63,249.881l-10.982,0.862
					l-0.94,0.475l11.214-0.88L202.63,249.881 M214.51,248.947l-11.155,0.877l-0.708,0.456l11.31-0.888L214.51,248.947
					 M226.395,248.015l-11.258,0.885l-0.553,0.444l11.369-0.893L226.395,248.015 M238.279,247.082l-11.316,0.888l-0.443,0.436
					l11.4-0.894L238.279,247.082 M250.168,246.146l-11.35,0.893l-0.36,0.43l11.417-0.896L250.168,246.146 M262.289,245.195
					l-11.604,0.912l-0.293,0.424l11.703-0.919L262.289,245.195"/>
				<path fill="#FFFFFF" d="M177.717,249.787l-22.652,3.83l-4.432,0.748l-6.92,1.17l-0.131,0.408l11.324-1.913l4.434-0.751
					l14.506-2.451L177.717,249.787 M189.045,247.873l-7.544,1.275l-3.872,1.041l9.582-1.619L189.045,247.873 M200.362,245.959
					l-9.524,1.609l-1.835,0.699l10.204-1.725L200.362,245.959 M211.682,244.047l-10.168,1.719l-1.155,0.582l10.506-1.775
					L211.682,244.047 M222.991,242.135l-10.448,1.766l-0.816,0.526l10.652-1.8L222.991,242.135 M234.307,240.223l-10.6,1.792
					l-0.612,0.491l10.735-1.812L234.307,240.223 M245.623,238.311l-10.685,1.806l-0.478,0.47l10.782-1.823L245.623,238.311
					 M256.944,236.396l-10.735,1.814l-0.38,0.453l10.81-1.826L256.944,236.396 M268.475,234.446l-10.977,1.856l-0.305,0.441
					l11.148-1.885L268.475,234.446"/>
				<path fill="#FFFFFF" d="M199.232,243.998l-21.516,5.789l-3.871,1.041l-6.889,1.854l-2.105,0.566l-8.695,2.339l-0.057,0.395
					l10.74-2.891l2.104-0.565l8.686-2.337l3.872-1.041l14.328-3.855L199.232,243.998 M209.979,241.107l-7.342,1.977l-3.403,1.293
					l9.138-2.458L209.979,241.107 M220.729,238.216l-9.109,2.45l-1.606,0.811l9.706-2.61L220.729,238.216 M231.469,235.325
					l-9.649,2.597l-1.009,0.65l9.949-2.678L231.469,235.325 M242.215,232.434l-9.896,2.664l-0.708,0.568l10.075-2.712
					L242.215,232.434 M252.964,229.543l-10.029,2.697l-0.529,0.521l10.149-2.73L252.964,229.543 M263.717,226.65l-10.104,2.718
					l-0.409,0.488l10.188-2.741L263.717,226.65 M274.658,223.707l-10.338,2.781l-0.324,0.465l10.605-2.854L274.658,223.707"/>
				<path fill="#FFFFFF" d="M219.59,236.257l-20.357,7.741l-3.403,1.295l-6.784,2.58l-1.834,0.697l-8.356,3.178l-1.329,0.506
					l-8.932,3.396l0.029,0.368l10.158-3.863l1.328-0.505l8.894-3.382l1.835-0.699l8.396-3.191l3.403-1.293l13.908-5.289
					L219.59,236.257 M229.771,232.385l-7.07,2.689l-3.045,1.537l8.684-3.303L229.771,232.385 M239.944,228.518l-8.62,3.277
					l-1.434,0.924l9.158-3.482L239.944,228.518 M250.123,224.646l-9.104,3.463l-0.895,0.717l9.372-3.562L250.123,224.646
					 M260.305,220.775l-9.33,3.547l-0.626,0.617l9.491-3.609L260.305,220.775 M270.49,216.902l-9.448,3.592l-0.464,0.557
					l9.555-3.635L270.49,216.902 M280.834,212.968l-9.676,3.681l-0.358,0.514l10.063-3.826L280.834,212.968"/>
				<path fill="#FFFFFF" d="M238.82,226.555l-19.23,9.702l-3.045,1.538l-6.566,3.312l-1.607,0.812l-8.009,4.04l-1.155,0.584
					l-8.465,4.272l-0.941,0.474l-8.775,4.429l0.125,0.323l9.557-4.823l0.94-0.475l8.711-4.396l1.155-0.582l8.499-4.289l1.606-0.811
					l8.037-4.055l3.045-1.537l13.352-6.736L238.82,226.555 M248.419,221.709l-6.67,3.366l-2.767,1.784l8.139-4.107L248.419,221.709
					 M258.03,216.859l-8.089,4.082l-1.298,1.042l8.579-4.328L258.03,216.859 M267.645,212.008l-8.543,4.311l-0.808,0.796
					l8.788-4.434L267.645,212.008 M277.264,207.155l-8.748,4.413l-0.562,0.672l8.896-4.488L277.264,207.155 M287.006,202.238
					l-8.986,4.534l-0.416,0.599l9.526-4.807L287.006,202.238"/>
				<path fill="#FFFFFF" d="M256.886,214.908l-18.065,11.646l-2.768,1.783l-6.281,4.047l-1.432,0.924l-7.611,4.907l-1.01,0.65
					l-8.037,5.181l-0.817,0.525l-8.234,5.309l-0.709,0.457l-8.458,5.451l0.217,0.271l8.967-5.78l0.708-0.456l8.372-5.397
					l0.816-0.526l8.268-5.328l1.009-0.65l8.071-5.203l1.434-0.924l7.658-4.936l2.767-1.784l12.552-8.091L256.886,214.908
					 M265.934,209.077l-6.182,3.984l-2.585,2.076l7.562-4.874L265.934,209.077 M274.982,203.244l-7.536,4.857l-1.206,1.188
					l7.995-5.154L274.982,203.244 M284.035,197.408l-7.96,5.131l-0.746,0.892l8.19-5.279L284.035,197.408 M293.179,191.516
					l-8.255,5.32l-0.516,0.741l8.988-5.792L293.179,191.516"/>
				<path fill="#FFFFFF" d="M273.842,201.287l-16.956,13.621l-2.585,2.076l-5.882,4.725l-1.298,1.043l-7.177,5.766l-0.896,0.719
					l-7.58,6.089l-0.709,0.569l-7.769,6.24l-0.612,0.492l-7.869,6.32l-0.554,0.445l-8.06,6.474l0.307,0.21l8.381-6.732l0.553-0.444
					l7.958-6.394l0.612-0.491l7.903-6.349l0.708-0.568l7.807-6.271l0.895-0.717l7.624-6.126l1.298-1.042l7.226-5.804l2.585-2.076
					l11.584-9.307L273.842,201.287 M282.325,194.475l-5.648,4.538l-2.505,2.466l6.99-5.615L282.325,194.475 M290.811,187.658
					l-6.949,5.582l-1.163,1.389l7.397-5.941L290.811,187.658 M299.353,180.797l-7.431,5.968l-0.714,1.029l8.449-6.788
					L299.353,180.797"/>
				<path fill="#FFFFFF" d="M289.674,185.697l-15.832,15.59l-2.506,2.468l-5.402,5.322l-1.205,1.187l-6.698,6.596l-0.808,0.796
					l-7.1,6.991l-0.626,0.617l-7.282,7.17l-0.529,0.521l-7.379,7.269l-0.477,0.471l-7.436,7.321l-0.441,0.437l-7.608,7.492
					l0.371,0.148l7.804-7.687l0.443-0.436l7.498-7.384l0.478-0.47l7.467-7.354l0.529-0.521l7.414-7.301l0.626-0.617l7.319-7.208
					l0.808-0.796l7.139-7.029l1.206-1.188l6.726-6.623l2.505-2.466l10.541-10.383L289.674,185.697 M297.59,177.9l-5.049,4.973
					l-2.455,2.934l6.372-6.275L297.59,177.9 M305.538,170.074l-6.391,6.291l-1.131,1.631l7.893-7.773L305.538,170.074"/>
				<path fill="#FFFFFF" d="M304.368,168.147l-14.694,17.55l-2.456,2.933l-4.893,5.845l-1.163,1.389l-6.18,7.381l-0.747,0.891
					l-6.591,7.873l-0.562,0.673l-6.777,8.095l-0.465,0.555l-6.876,8.213l-0.409,0.488l-6.932,8.279l-0.38,0.452l-6.964,8.319
					l-0.359,0.43l-7.121,8.502l0.426,0.094l7.233-8.639l0.36-0.43l7.011-8.375l0.38-0.453l6.995-8.354l0.409-0.488l6.965-8.317
					l0.464-0.557l6.911-8.254l0.562-0.672l6.813-8.138l0.746-0.892l6.623-7.91l1.163-1.389l6.225-7.434l2.455-2.934l9.372-11.192
					L304.368,168.147 M311.731,159.352l-4.468,5.338l-2.457,3.533l7.351-8.779L311.731,159.352"/>
				<polyline fill="#FFFFFF" points="317.933,148.625 304.368,168.147 301.913,171.681 297.59,177.9 296.458,179.531 
					290.811,187.658 290.096,188.688 284.035,197.408 283.52,198.151 277.264,207.155 276.849,207.752 270.49,216.902 
					270.133,217.416 263.717,226.65 263.393,227.115 256.944,236.396 256.639,236.838 250.168,246.146 249.875,246.572 
					243.263,256.088 243.721,256.131 250.393,246.531 250.686,246.107 257.193,236.744 257.498,236.303 263.996,226.953 
					264.32,226.488 270.8,217.162 271.158,216.648 277.604,207.371 278.02,206.772 284.408,197.577 284.924,196.836 
					291.208,187.794 291.922,186.765 298.017,177.996 299.147,176.365 304.807,168.223 307.264,164.689 318.396,148.668 
					317.933,148.625 				"/>
			</g>
		</g>
	</g>
</g>
</svg>
